<mxfile host="app.diagrams.net" modified="2023-12-11T12:08:09.475Z" agent="Mozilla/5.0 (Windows NT 10.0; Win64; x64) AppleWebKit/537.36 (KHTML, like Gecko) Chrome/120.0.0.0 Safari/537.36" etag="sBdvVgGtMAy_pzMFv406" version="22.1.7" type="device">
  <diagram name="Page-1" id="I2pchXq7T7I7XBP1Yaf4">
    <mxGraphModel dx="2997" dy="3107" grid="1" gridSize="10" guides="1" tooltips="1" connect="1" arrows="1" fold="1" page="1" pageScale="1" pageWidth="1100" pageHeight="850" math="0" shadow="0">
      <root>
        <mxCell id="0" />
        <mxCell id="1" parent="0" />
        <mxCell id="CMHBfLRFvxryyFdHKtvF-32" style="edgeStyle=orthogonalEdgeStyle;rounded=0;orthogonalLoop=1;jettySize=auto;html=1;" parent="1" source="CMHBfLRFvxryyFdHKtvF-8" edge="1">
          <mxGeometry relative="1" as="geometry">
            <mxPoint x="2460" y="40" as="targetPoint" />
            <Array as="points">
              <mxPoint x="2460" y="-70" />
              <mxPoint x="2460" y="40" />
            </Array>
          </mxGeometry>
        </mxCell>
        <mxCell id="CMHBfLRFvxryyFdHKtvF-8" value="Студент&lt;br&gt;" style="rounded=1;whiteSpace=wrap;html=1;" parent="1" vertex="1">
          <mxGeometry x="2020" y="-100" width="120" height="60" as="geometry" />
        </mxCell>
        <mxCell id="CMHBfLRFvxryyFdHKtvF-9" value="" style="endArrow=classic;html=1;rounded=0;exitX=1;exitY=0.5;exitDx=0;exitDy=0;" parent="1" edge="1">
          <mxGeometry width="50" height="50" relative="1" as="geometry">
            <mxPoint x="2079.94" y="-40" as="sourcePoint" />
            <mxPoint x="2079.4700000000003" y="40" as="targetPoint" />
            <Array as="points">
              <mxPoint x="2079.94" y="-10" />
            </Array>
          </mxGeometry>
        </mxCell>
        <mxCell id="CMHBfLRFvxryyFdHKtvF-21" style="edgeStyle=orthogonalEdgeStyle;rounded=0;orthogonalLoop=1;jettySize=auto;html=1;entryX=1;entryY=0.5;entryDx=0;entryDy=0;" parent="1" source="CMHBfLRFvxryyFdHKtvF-10" target="CMHBfLRFvxryyFdHKtvF-17" edge="1">
          <mxGeometry relative="1" as="geometry">
            <Array as="points">
              <mxPoint x="2290" y="190" />
              <mxPoint x="2290" y="68" />
            </Array>
          </mxGeometry>
        </mxCell>
        <mxCell id="CMHBfLRFvxryyFdHKtvF-31" style="edgeStyle=orthogonalEdgeStyle;rounded=0;orthogonalLoop=1;jettySize=auto;html=1;entryX=0.5;entryY=0;entryDx=0;entryDy=0;" parent="1" source="CMHBfLRFvxryyFdHKtvF-10" target="CMHBfLRFvxryyFdHKtvF-29" edge="1">
          <mxGeometry relative="1" as="geometry" />
        </mxCell>
        <mxCell id="CMHBfLRFvxryyFdHKtvF-10" value="обрати тему курсової" style="rhombus;whiteSpace=wrap;html=1;fontColor=#000000;fillColor=#ffffc0;strokeColor=#ff0000;" parent="1" vertex="1">
          <mxGeometry x="2040" y="170" width="80" height="40" as="geometry" />
        </mxCell>
        <mxCell id="CMHBfLRFvxryyFdHKtvF-15" value="&lt;div style=&quot;text-align: center;&quot;&gt;&lt;span style=&quot;background-color: initial;&quot;&gt;no&lt;/span&gt;&lt;/div&gt;" style="text;whiteSpace=wrap;html=1;" parent="1" vertex="1">
          <mxGeometry x="2300" y="98" width="60" height="40" as="geometry" />
        </mxCell>
        <mxCell id="CMHBfLRFvxryyFdHKtvF-17" value="Обрати курсову" style="rounded=1;whiteSpace=wrap;html=1;" parent="1" vertex="1">
          <mxGeometry x="2020" y="38" width="120" height="60" as="geometry" />
        </mxCell>
        <mxCell id="CMHBfLRFvxryyFdHKtvF-19" value="" style="endArrow=classic;html=1;rounded=0;exitX=1;exitY=0.5;exitDx=0;exitDy=0;" parent="1" edge="1">
          <mxGeometry width="50" height="50" relative="1" as="geometry">
            <mxPoint x="2079.94" y="98" as="sourcePoint" />
            <mxPoint x="2079" y="170" as="targetPoint" />
            <Array as="points">
              <mxPoint x="2079.94" y="128" />
            </Array>
          </mxGeometry>
        </mxCell>
        <mxCell id="CMHBfLRFvxryyFdHKtvF-23" value="&lt;div style=&quot;text-align: center;&quot;&gt;yes&lt;/div&gt;" style="text;whiteSpace=wrap;html=1;" parent="1" vertex="1">
          <mxGeometry x="2090" y="230" width="60" height="40" as="geometry" />
        </mxCell>
        <mxCell id="bfYKVRMlB8FyZyhpaUao-15" style="edgeStyle=orthogonalEdgeStyle;rounded=0;orthogonalLoop=1;jettySize=auto;html=1;entryX=1;entryY=0.5;entryDx=0;entryDy=0;" parent="1" source="CMHBfLRFvxryyFdHKtvF-29" target="CMHBfLRFvxryyFdHKtvF-117" edge="1">
          <mxGeometry relative="1" as="geometry" />
        </mxCell>
        <mxCell id="CMHBfLRFvxryyFdHKtvF-29" value="здати курсову вчителю" style="rounded=1;whiteSpace=wrap;html=1;" parent="1" vertex="1">
          <mxGeometry x="2020" y="295" width="120" height="60" as="geometry" />
        </mxCell>
        <mxCell id="CMHBfLRFvxryyFdHKtvF-39" style="edgeStyle=orthogonalEdgeStyle;rounded=0;orthogonalLoop=1;jettySize=auto;html=1;" parent="1" source="CMHBfLRFvxryyFdHKtvF-35" edge="1">
          <mxGeometry relative="1" as="geometry">
            <mxPoint x="2460" y="140" as="targetPoint" />
          </mxGeometry>
        </mxCell>
        <mxCell id="CMHBfLRFvxryyFdHKtvF-40" style="edgeStyle=orthogonalEdgeStyle;rounded=0;orthogonalLoop=1;jettySize=auto;html=1;" parent="1" source="CMHBfLRFvxryyFdHKtvF-35" edge="1">
          <mxGeometry relative="1" as="geometry">
            <mxPoint x="2620" y="140" as="targetPoint" />
          </mxGeometry>
        </mxCell>
        <mxCell id="bfYKVRMlB8FyZyhpaUao-1" value="No" style="edgeLabel;html=1;align=center;verticalAlign=middle;resizable=0;points=[];" parent="CMHBfLRFvxryyFdHKtvF-40" vertex="1" connectable="0">
          <mxGeometry x="-0.34" y="1" relative="1" as="geometry">
            <mxPoint as="offset" />
          </mxGeometry>
        </mxCell>
        <mxCell id="CMHBfLRFvxryyFdHKtvF-35" value="прийти на пару" style="rhombus;whiteSpace=wrap;html=1;fontColor=#000000;fillColor=#ffffc0;strokeColor=#ff0000;" parent="1" vertex="1">
          <mxGeometry x="2420" y="40" width="80" height="40" as="geometry" />
        </mxCell>
        <mxCell id="CMHBfLRFvxryyFdHKtvF-37" value="&lt;span style=&quot;color: rgb(0, 0, 0); font-family: Helvetica; font-size: 12px; font-style: normal; font-variant-ligatures: normal; font-variant-caps: normal; font-weight: 400; letter-spacing: normal; orphans: 2; text-align: center; text-indent: 0px; text-transform: none; widows: 2; word-spacing: 0px; -webkit-text-stroke-width: 0px; background-color: rgb(251, 251, 251); text-decoration-thickness: initial; text-decoration-style: initial; text-decoration-color: initial; float: none; display: inline !important;&quot;&gt;yes&lt;/span&gt;" style="text;whiteSpace=wrap;html=1;" parent="1" vertex="1">
          <mxGeometry x="2470" y="90" width="50" height="40" as="geometry" />
        </mxCell>
        <mxCell id="bfYKVRMlB8FyZyhpaUao-18" style="edgeStyle=orthogonalEdgeStyle;rounded=0;orthogonalLoop=1;jettySize=auto;html=1;entryX=1;entryY=0.5;entryDx=0;entryDy=0;" parent="1" source="CMHBfLRFvxryyFdHKtvF-38" target="CMHBfLRFvxryyFdHKtvF-55" edge="1">
          <mxGeometry relative="1" as="geometry">
            <mxPoint x="1520" y="540" as="targetPoint" />
            <Array as="points">
              <mxPoint x="2460" y="535" />
              <mxPoint x="1540" y="535" />
              <mxPoint x="1540" y="460" />
            </Array>
          </mxGeometry>
        </mxCell>
        <mxCell id="CMHBfLRFvxryyFdHKtvF-38" value="Підключитись на заняття" style="rounded=1;whiteSpace=wrap;html=1;" parent="1" vertex="1">
          <mxGeometry x="2400" y="140" width="120" height="60" as="geometry" />
        </mxCell>
        <mxCell id="bfYKVRMlB8FyZyhpaUao-31" style="edgeStyle=orthogonalEdgeStyle;rounded=0;orthogonalLoop=1;jettySize=auto;html=1;entryX=1;entryY=0.5;entryDx=0;entryDy=0;" parent="1" source="CMHBfLRFvxryyFdHKtvF-41" target="bfYKVRMlB8FyZyhpaUao-25" edge="1">
          <mxGeometry relative="1" as="geometry">
            <Array as="points">
              <mxPoint x="2620" y="610" />
            </Array>
          </mxGeometry>
        </mxCell>
        <mxCell id="CMHBfLRFvxryyFdHKtvF-41" value="повідомити причину відсутності" style="rounded=1;whiteSpace=wrap;html=1;" parent="1" vertex="1">
          <mxGeometry x="2560" y="140" width="120" height="60" as="geometry" />
        </mxCell>
        <mxCell id="CMHBfLRFvxryyFdHKtvF-51" style="edgeStyle=orthogonalEdgeStyle;rounded=0;orthogonalLoop=1;jettySize=auto;html=1;" parent="1" source="CMHBfLRFvxryyFdHKtvF-45" edge="1">
          <mxGeometry relative="1" as="geometry">
            <mxPoint x="1464" y="85" as="targetPoint" />
          </mxGeometry>
        </mxCell>
        <mxCell id="CMHBfLRFvxryyFdHKtvF-45" value="Вчитель" style="rounded=1;whiteSpace=wrap;html=1;" parent="1" vertex="1">
          <mxGeometry x="1404" y="-100" width="120" height="60" as="geometry" />
        </mxCell>
        <mxCell id="CMHBfLRFvxryyFdHKtvF-47" value="" style="line;strokeWidth=4;rotatable=0;dashed=0;labelPosition=right;align=left;verticalAlign=middle;spacingTop=0;spacingLeft=6;points=[];portConstraint=eastwest;strokeColor=#CC0000;" parent="1" vertex="1">
          <mxGeometry x="1416.5" y="80" width="95" height="15" as="geometry" />
        </mxCell>
        <mxCell id="CMHBfLRFvxryyFdHKtvF-52" value="" style="endArrow=classic;html=1;rounded=0;exitX=0.532;exitY=0.383;exitDx=0;exitDy=0;exitPerimeter=0;" parent="1" source="CMHBfLRFvxryyFdHKtvF-47" edge="1">
          <mxGeometry width="50" height="50" relative="1" as="geometry">
            <mxPoint x="1450" y="175" as="sourcePoint" />
            <mxPoint x="1320" y="285" as="targetPoint" />
          </mxGeometry>
        </mxCell>
        <mxCell id="CMHBfLRFvxryyFdHKtvF-100" style="rounded=0;orthogonalLoop=1;jettySize=auto;html=1;entryX=0.431;entryY=-0.025;entryDx=0;entryDy=0;entryPerimeter=0;" parent="1" source="CMHBfLRFvxryyFdHKtvF-53" target="CMHBfLRFvxryyFdHKtvF-55" edge="1">
          <mxGeometry relative="1" as="geometry" />
        </mxCell>
        <mxCell id="CMHBfLRFvxryyFdHKtvF-104" style="edgeStyle=orthogonalEdgeStyle;rounded=0;orthogonalLoop=1;jettySize=auto;html=1;entryX=0;entryY=0.75;entryDx=0;entryDy=0;" parent="1" source="CMHBfLRFvxryyFdHKtvF-53" target="CMHBfLRFvxryyFdHKtvF-58" edge="1">
          <mxGeometry relative="1" as="geometry">
            <Array as="points">
              <mxPoint x="1320" y="730" />
              <mxPoint x="1580" y="730" />
            </Array>
          </mxGeometry>
        </mxCell>
        <mxCell id="CMHBfLRFvxryyFdHKtvF-53" value="Провести пару" style="rhombus;whiteSpace=wrap;html=1;fontColor=#000000;fillColor=#ffffc0;strokeColor=#ff0000;" parent="1" vertex="1">
          <mxGeometry x="1280" y="285" width="80" height="40" as="geometry" />
        </mxCell>
        <mxCell id="CMHBfLRFvxryyFdHKtvF-55" value="запустити конференцію в zoom" style="rounded=1;whiteSpace=wrap;html=1;" parent="1" vertex="1">
          <mxGeometry x="1404" y="430" width="120" height="60" as="geometry" />
        </mxCell>
        <mxCell id="CMHBfLRFvxryyFdHKtvF-108" style="rounded=0;orthogonalLoop=1;jettySize=auto;html=1;entryX=0.75;entryY=0;entryDx=0;entryDy=0;" parent="1" source="CMHBfLRFvxryyFdHKtvF-58" target="CMHBfLRFvxryyFdHKtvF-59" edge="1">
          <mxGeometry relative="1" as="geometry" />
        </mxCell>
        <mxCell id="CMHBfLRFvxryyFdHKtvF-58" value="Повідомити причину" style="rounded=1;whiteSpace=wrap;html=1;" parent="1" vertex="1">
          <mxGeometry x="1580" y="700" width="120" height="60" as="geometry" />
        </mxCell>
        <mxCell id="bfYKVRMlB8FyZyhpaUao-41" style="edgeStyle=orthogonalEdgeStyle;rounded=0;orthogonalLoop=1;jettySize=auto;html=1;entryX=1;entryY=0.5;entryDx=0;entryDy=0;" parent="1" source="CMHBfLRFvxryyFdHKtvF-59" target="bfYKVRMlB8FyZyhpaUao-40" edge="1">
          <mxGeometry relative="1" as="geometry" />
        </mxCell>
        <mxCell id="CMHBfLRFvxryyFdHKtvF-59" value="заповнити журнал" style="rounded=1;whiteSpace=wrap;html=1;" parent="1" vertex="1">
          <mxGeometry x="1391.5" y="815" width="120" height="60" as="geometry" />
        </mxCell>
        <mxCell id="CMHBfLRFvxryyFdHKtvF-90" style="edgeStyle=orthogonalEdgeStyle;rounded=0;orthogonalLoop=1;jettySize=auto;html=1;entryX=0.5;entryY=0;entryDx=0;entryDy=0;" parent="1" source="CMHBfLRFvxryyFdHKtvF-68" target="CMHBfLRFvxryyFdHKtvF-55" edge="1">
          <mxGeometry relative="1" as="geometry" />
        </mxCell>
        <mxCell id="CMHBfLRFvxryyFdHKtvF-105" style="edgeStyle=orthogonalEdgeStyle;rounded=0;orthogonalLoop=1;jettySize=auto;html=1;entryX=0.25;entryY=0;entryDx=0;entryDy=0;" parent="1" source="CMHBfLRFvxryyFdHKtvF-68" target="CMHBfLRFvxryyFdHKtvF-58" edge="1">
          <mxGeometry relative="1" as="geometry" />
        </mxCell>
        <mxCell id="CMHBfLRFvxryyFdHKtvF-68" value="Провести консультацію" style="rhombus;whiteSpace=wrap;html=1;fontColor=#000000;fillColor=#ffffc0;strokeColor=#ff0000;" parent="1" vertex="1">
          <mxGeometry x="1424" y="295" width="80" height="40" as="geometry" />
        </mxCell>
        <mxCell id="CMHBfLRFvxryyFdHKtvF-73" value="" style="endArrow=classic;html=1;rounded=0;entryX=0.5;entryY=0;entryDx=0;entryDy=0;" parent="1" target="CMHBfLRFvxryyFdHKtvF-68" edge="1">
          <mxGeometry width="50" height="50" relative="1" as="geometry">
            <mxPoint x="1464" y="85" as="sourcePoint" />
            <mxPoint x="1270" y="235" as="targetPoint" />
          </mxGeometry>
        </mxCell>
        <mxCell id="CMHBfLRFvxryyFdHKtvF-103" style="edgeStyle=orthogonalEdgeStyle;rounded=0;orthogonalLoop=1;jettySize=auto;html=1;entryX=0.75;entryY=0;entryDx=0;entryDy=0;" parent="1" source="CMHBfLRFvxryyFdHKtvF-81" target="CMHBfLRFvxryyFdHKtvF-58" edge="1">
          <mxGeometry relative="1" as="geometry" />
        </mxCell>
        <mxCell id="CMHBfLRFvxryyFdHKtvF-81" value="Провести семінар" style="rhombus;whiteSpace=wrap;html=1;fontColor=#000000;fillColor=#ffffc0;strokeColor=#ff0000;" parent="1" vertex="1">
          <mxGeometry x="1630" y="295" width="80" height="40" as="geometry" />
        </mxCell>
        <mxCell id="CMHBfLRFvxryyFdHKtvF-82" value="" style="endArrow=classic;html=1;rounded=0;entryX=0.5;entryY=0;entryDx=0;entryDy=0;" parent="1" target="CMHBfLRFvxryyFdHKtvF-81" edge="1">
          <mxGeometry width="50" height="50" relative="1" as="geometry">
            <mxPoint x="1460" y="85" as="sourcePoint" />
            <mxPoint x="1740" y="275" as="targetPoint" />
          </mxGeometry>
        </mxCell>
        <mxCell id="CMHBfLRFvxryyFdHKtvF-101" style="rounded=0;orthogonalLoop=1;jettySize=auto;html=1;entryX=0.6;entryY=0.017;entryDx=0;entryDy=0;entryPerimeter=0;" parent="1" source="CMHBfLRFvxryyFdHKtvF-81" target="CMHBfLRFvxryyFdHKtvF-55" edge="1">
          <mxGeometry relative="1" as="geometry">
            <mxPoint x="1470" y="505" as="targetPoint" />
          </mxGeometry>
        </mxCell>
        <mxCell id="CMHBfLRFvxryyFdHKtvF-107" style="edgeStyle=orthogonalEdgeStyle;rounded=0;orthogonalLoop=1;jettySize=auto;html=1;entryX=0.605;entryY=-0.051;entryDx=0;entryDy=0;entryPerimeter=0;exitX=0.432;exitY=1;exitDx=0;exitDy=0;exitPerimeter=0;" parent="1" source="bfYKVRMlB8FyZyhpaUao-28" target="CMHBfLRFvxryyFdHKtvF-59" edge="1">
          <mxGeometry relative="1" as="geometry">
            <mxPoint x="1464" y="700" as="sourcePoint" />
          </mxGeometry>
        </mxCell>
        <mxCell id="CMHBfLRFvxryyFdHKtvF-109" value="no" style="text;html=1;align=center;verticalAlign=middle;resizable=0;points=[];autosize=1;strokeColor=none;fillColor=none;" parent="1" vertex="1">
          <mxGeometry x="1670" y="425" width="40" height="30" as="geometry" />
        </mxCell>
        <mxCell id="CMHBfLRFvxryyFdHKtvF-110" value="no" style="text;html=1;align=center;verticalAlign=middle;resizable=0;points=[];autosize=1;strokeColor=none;fillColor=none;" parent="1" vertex="1">
          <mxGeometry x="1600" y="423" width="40" height="30" as="geometry" />
        </mxCell>
        <mxCell id="CMHBfLRFvxryyFdHKtvF-111" value="yes" style="text;html=1;align=center;verticalAlign=middle;resizable=0;points=[];autosize=1;strokeColor=none;fillColor=none;" parent="1" vertex="1">
          <mxGeometry x="1460" y="373" width="40" height="30" as="geometry" />
        </mxCell>
        <mxCell id="CMHBfLRFvxryyFdHKtvF-112" value="yes" style="text;html=1;align=center;verticalAlign=middle;resizable=0;points=[];autosize=1;strokeColor=none;fillColor=none;" parent="1" vertex="1">
          <mxGeometry x="1370" y="373" width="40" height="30" as="geometry" />
        </mxCell>
        <mxCell id="CMHBfLRFvxryyFdHKtvF-113" value="no" style="text;html=1;align=center;verticalAlign=middle;resizable=0;points=[];autosize=1;strokeColor=none;fillColor=none;" parent="1" vertex="1">
          <mxGeometry x="1270" y="425" width="40" height="30" as="geometry" />
        </mxCell>
        <mxCell id="CMHBfLRFvxryyFdHKtvF-114" value="yes" style="text;html=1;align=center;verticalAlign=middle;resizable=0;points=[];autosize=1;strokeColor=none;fillColor=none;" parent="1" vertex="1">
          <mxGeometry x="1530" y="383" width="40" height="30" as="geometry" />
        </mxCell>
        <mxCell id="CMHBfLRFvxryyFdHKtvF-115" value="" style="endArrow=classic;html=1;rounded=0;entryX=0.5;entryY=0;entryDx=0;entryDy=0;" parent="1" edge="1">
          <mxGeometry width="50" height="50" relative="1" as="geometry">
            <mxPoint x="1470" y="95" as="sourcePoint" />
            <mxPoint x="1810" y="295" as="targetPoint" />
          </mxGeometry>
        </mxCell>
        <mxCell id="CMHBfLRFvxryyFdHKtvF-118" style="edgeStyle=orthogonalEdgeStyle;rounded=0;orthogonalLoop=1;jettySize=auto;html=1;" parent="1" source="CMHBfLRFvxryyFdHKtvF-117" edge="1">
          <mxGeometry relative="1" as="geometry">
            <mxPoint x="1810" y="475" as="targetPoint" />
          </mxGeometry>
        </mxCell>
        <mxCell id="CMHBfLRFvxryyFdHKtvF-117" value="Перевірити курсову" style="rounded=1;whiteSpace=wrap;html=1;" parent="1" vertex="1">
          <mxGeometry x="1750" y="295" width="120" height="60" as="geometry" />
        </mxCell>
        <mxCell id="CMHBfLRFvxryyFdHKtvF-120" style="edgeStyle=orthogonalEdgeStyle;rounded=0;orthogonalLoop=1;jettySize=auto;html=1;entryX=1;entryY=0.5;entryDx=0;entryDy=0;" parent="1" source="CMHBfLRFvxryyFdHKtvF-119" target="CMHBfLRFvxryyFdHKtvF-59" edge="1">
          <mxGeometry relative="1" as="geometry">
            <Array as="points">
              <mxPoint x="1810" y="845" />
            </Array>
          </mxGeometry>
        </mxCell>
        <mxCell id="CMHBfLRFvxryyFdHKtvF-124" style="edgeStyle=orthogonalEdgeStyle;rounded=0;orthogonalLoop=1;jettySize=auto;html=1;exitX=1;exitY=0.5;exitDx=0;exitDy=0;entryX=0;entryY=0.5;entryDx=0;entryDy=0;" parent="1" source="CMHBfLRFvxryyFdHKtvF-119" target="CMHBfLRFvxryyFdHKtvF-123" edge="1">
          <mxGeometry relative="1" as="geometry" />
        </mxCell>
        <mxCell id="CMHBfLRFvxryyFdHKtvF-119" value="Схвалено?" style="rhombus;whiteSpace=wrap;html=1;fontColor=#000000;fillColor=#ffffc0;strokeColor=#ff0000;" parent="1" vertex="1">
          <mxGeometry x="1770" y="475" width="80" height="40" as="geometry" />
        </mxCell>
        <mxCell id="CMHBfLRFvxryyFdHKtvF-121" value="yes" style="text;html=1;align=center;verticalAlign=middle;resizable=0;points=[];autosize=1;strokeColor=none;fillColor=none;" parent="1" vertex="1">
          <mxGeometry x="1810" y="615" width="40" height="30" as="geometry" />
        </mxCell>
        <mxCell id="bfYKVRMlB8FyZyhpaUao-17" style="edgeStyle=orthogonalEdgeStyle;rounded=0;orthogonalLoop=1;jettySize=auto;html=1;" parent="1" edge="1">
          <mxGeometry relative="1" as="geometry">
            <mxPoint x="2090.004482758621" y="465" as="sourcePoint" />
            <mxPoint x="2070" y="350" as="targetPoint" />
            <Array as="points">
              <mxPoint x="2070" y="465" />
              <mxPoint x="2070" y="355" />
            </Array>
          </mxGeometry>
        </mxCell>
        <mxCell id="CMHBfLRFvxryyFdHKtvF-123" value="Повернути роботу студенту" style="rounded=1;whiteSpace=wrap;html=1;" parent="1" vertex="1">
          <mxGeometry x="2030" y="465" width="120" height="60" as="geometry" />
        </mxCell>
        <mxCell id="CMHBfLRFvxryyFdHKtvF-125" value="no" style="text;html=1;align=center;verticalAlign=middle;resizable=0;points=[];autosize=1;strokeColor=none;fillColor=none;" parent="1" vertex="1">
          <mxGeometry x="1910" y="465" width="40" height="30" as="geometry" />
        </mxCell>
        <mxCell id="bfYKVRMlB8FyZyhpaUao-2" value="отримати навчальний план від деканату" style="rounded=1;whiteSpace=wrap;html=1;" parent="1" vertex="1">
          <mxGeometry x="1660" y="-420" width="120" height="60" as="geometry" />
        </mxCell>
        <mxCell id="bfYKVRMlB8FyZyhpaUao-3" value="" style="endArrow=classic;html=1;rounded=0;exitX=0.5;exitY=1;exitDx=0;exitDy=0;" parent="1" source="bfYKVRMlB8FyZyhpaUao-2" edge="1">
          <mxGeometry width="50" height="50" relative="1" as="geometry">
            <mxPoint x="1580" y="-270" as="sourcePoint" />
            <mxPoint x="1720" y="-310" as="targetPoint" />
          </mxGeometry>
        </mxCell>
        <mxCell id="bfYKVRMlB8FyZyhpaUao-4" value="відіслати навчальний план&amp;nbsp;" style="rounded=1;whiteSpace=wrap;html=1;" parent="1" vertex="1">
          <mxGeometry x="1660" y="-310" width="120" height="60" as="geometry" />
        </mxCell>
        <mxCell id="bfYKVRMlB8FyZyhpaUao-19" value="відмітити відсутніх" style="rounded=1;whiteSpace=wrap;html=1;" parent="1" vertex="1">
          <mxGeometry x="1330" y="580" width="120" height="60" as="geometry" />
        </mxCell>
        <mxCell id="bfYKVRMlB8FyZyhpaUao-26" style="rounded=0;orthogonalLoop=1;jettySize=auto;html=1;" parent="1" source="bfYKVRMlB8FyZyhpaUao-21" target="bfYKVRMlB8FyZyhpaUao-19" edge="1">
          <mxGeometry relative="1" as="geometry" />
        </mxCell>
        <mxCell id="bfYKVRMlB8FyZyhpaUao-27" style="rounded=0;orthogonalLoop=1;jettySize=auto;html=1;entryX=0.5;entryY=0;entryDx=0;entryDy=0;" parent="1" source="bfYKVRMlB8FyZyhpaUao-21" target="bfYKVRMlB8FyZyhpaUao-25" edge="1">
          <mxGeometry relative="1" as="geometry" />
        </mxCell>
        <mxCell id="bfYKVRMlB8FyZyhpaUao-21" value="" style="line;strokeWidth=4;rotatable=0;dashed=0;labelPosition=right;align=left;verticalAlign=middle;spacingTop=0;spacingLeft=6;points=[];portConstraint=eastwest;strokeColor=#CC0000;" parent="1" vertex="1">
          <mxGeometry x="1416.5" y="525" width="95" height="10" as="geometry" />
        </mxCell>
        <mxCell id="bfYKVRMlB8FyZyhpaUao-24" style="edgeStyle=orthogonalEdgeStyle;rounded=0;orthogonalLoop=1;jettySize=auto;html=1;entryX=0.5;entryY=0.1;entryDx=0;entryDy=0;entryPerimeter=0;" parent="1" source="CMHBfLRFvxryyFdHKtvF-55" target="bfYKVRMlB8FyZyhpaUao-21" edge="1">
          <mxGeometry relative="1" as="geometry" />
        </mxCell>
        <mxCell id="bfYKVRMlB8FyZyhpaUao-25" value="відмітити відсутніх" style="rounded=1;whiteSpace=wrap;html=1;" parent="1" vertex="1">
          <mxGeometry x="1470" y="580" width="120" height="60" as="geometry" />
        </mxCell>
        <mxCell id="bfYKVRMlB8FyZyhpaUao-28" value="" style="line;strokeWidth=4;rotatable=0;dashed=0;labelPosition=right;align=left;verticalAlign=middle;spacingTop=0;spacingLeft=6;points=[];portConstraint=eastwest;strokeColor=#CC0000;" parent="1" vertex="1">
          <mxGeometry x="1424" y="670" width="95" height="10" as="geometry" />
        </mxCell>
        <mxCell id="bfYKVRMlB8FyZyhpaUao-29" style="rounded=0;orthogonalLoop=1;jettySize=auto;html=1;entryX=0.463;entryY=0.6;entryDx=0;entryDy=0;entryPerimeter=0;" parent="1" source="bfYKVRMlB8FyZyhpaUao-25" target="bfYKVRMlB8FyZyhpaUao-28" edge="1">
          <mxGeometry relative="1" as="geometry" />
        </mxCell>
        <mxCell id="bfYKVRMlB8FyZyhpaUao-30" style="rounded=0;orthogonalLoop=1;jettySize=auto;html=1;" parent="1" source="bfYKVRMlB8FyZyhpaUao-19" edge="1">
          <mxGeometry relative="1" as="geometry">
            <mxPoint x="1460" y="670" as="targetPoint" />
          </mxGeometry>
        </mxCell>
        <mxCell id="bfYKVRMlB8FyZyhpaUao-34" style="rounded=0;orthogonalLoop=1;jettySize=auto;html=1;exitX=0.595;exitY=0.733;exitDx=0;exitDy=0;exitPerimeter=0;" parent="1" source="bfYKVRMlB8FyZyhpaUao-33" target="CMHBfLRFvxryyFdHKtvF-8" edge="1">
          <mxGeometry relative="1" as="geometry" />
        </mxCell>
        <mxCell id="bfYKVRMlB8FyZyhpaUao-35" style="rounded=0;orthogonalLoop=1;jettySize=auto;html=1;entryX=0.5;entryY=0;entryDx=0;entryDy=0;exitX=0.458;exitY=0.667;exitDx=0;exitDy=0;exitPerimeter=0;" parent="1" source="bfYKVRMlB8FyZyhpaUao-33" target="CMHBfLRFvxryyFdHKtvF-45" edge="1">
          <mxGeometry relative="1" as="geometry" />
        </mxCell>
        <mxCell id="bfYKVRMlB8FyZyhpaUao-33" value="" style="line;strokeWidth=4;rotatable=0;dashed=0;labelPosition=right;align=left;verticalAlign=middle;spacingTop=0;spacingLeft=6;points=[];portConstraint=eastwest;strokeColor=#CC0000;" parent="1" vertex="1">
          <mxGeometry x="1672.5" y="-170" width="95" height="15" as="geometry" />
        </mxCell>
        <mxCell id="bfYKVRMlB8FyZyhpaUao-36" style="rounded=0;orthogonalLoop=1;jettySize=auto;html=1;entryX=0.5;entryY=0.267;entryDx=0;entryDy=0;entryPerimeter=0;" parent="1" source="bfYKVRMlB8FyZyhpaUao-4" target="bfYKVRMlB8FyZyhpaUao-33" edge="1">
          <mxGeometry relative="1" as="geometry" />
        </mxCell>
        <mxCell id="bfYKVRMlB8FyZyhpaUao-38" style="edgeStyle=orthogonalEdgeStyle;rounded=0;orthogonalLoop=1;jettySize=auto;html=1;entryX=0.5;entryY=0;entryDx=0;entryDy=0;" parent="1" source="bfYKVRMlB8FyZyhpaUao-37" target="bfYKVRMlB8FyZyhpaUao-2" edge="1">
          <mxGeometry relative="1" as="geometry" />
        </mxCell>
        <mxCell id="bfYKVRMlB8FyZyhpaUao-37" value="кафедра" style="rounded=1;whiteSpace=wrap;html=1;" parent="1" vertex="1">
          <mxGeometry x="1660" y="-510" width="120" height="60" as="geometry" />
        </mxCell>
        <mxCell id="bfYKVRMlB8FyZyhpaUao-42" style="edgeStyle=orthogonalEdgeStyle;rounded=0;orthogonalLoop=1;jettySize=auto;html=1;entryX=0;entryY=0.5;entryDx=0;entryDy=0;" parent="1" source="bfYKVRMlB8FyZyhpaUao-40" target="bfYKVRMlB8FyZyhpaUao-37" edge="1">
          <mxGeometry relative="1" as="geometry">
            <Array as="points">
              <mxPoint x="1170" y="845" />
              <mxPoint x="1170" y="-480" />
            </Array>
          </mxGeometry>
        </mxCell>
        <mxCell id="bfYKVRMlB8FyZyhpaUao-40" value="передати заповнений журнал в кафедру" style="rounded=1;whiteSpace=wrap;html=1;" parent="1" vertex="1">
          <mxGeometry x="1230" y="815" width="120" height="60" as="geometry" />
        </mxCell>
      </root>
    </mxGraphModel>
  </diagram>
</mxfile>
